<svg width="40" height="40" viewBox="0 0 40 40" fill="none" xmlns="http://www.w3.org/2000/svg" xmlns:xlink="http://www.w3.org/1999/xlink">
<rect width="40" height="40" rx="4" fill="#BFBFBF"/>
<path d="M15.7303 29C14.6592 29 13.5507 28.582 12.5172 27.5216C10.8625 25.8297 10.8553 24.1232 11.1427 22.988C11.4872 21.6246 12.3583 20.5842 12.8474 20.0842C13.3365 19.5841 15.1769 17.695 16.8995 15.9246C18.4667 14.3167 19.9554 12.7854 20.3303 12.4039C21.2371 11.4749 22.2617 10.984 23.2899 11.0004C24.2467 11.0004 25.1678 11.4403 25.955 12.2451C26.3006 12.6013 26.5638 13.032 26.7254 13.5058C26.8869 13.9795 26.9427 14.4842 26.8885 14.9829C26.7698 16.0315 26.2999 17.0059 25.5587 17.7407L19.9001 23.5264C18.3168 25.1435 16.9316 24.8788 16.1622 24.0922C15.6607 23.5793 14.7039 22.1739 16.6406 20.1937L21.3763 15.3534C21.5112 15.2221 21.6909 15.1499 21.8771 15.1522C22.0633 15.1545 22.2412 15.231 22.373 15.3655C22.5048 15.5 22.58 15.6818 22.5825 15.8722C22.5851 16.0626 22.5148 16.2464 22.3867 16.3846L17.6456 21.2358C16.5085 22.3984 16.953 22.8511 17.1654 23.061C17.6724 23.5793 18.4596 22.9296 18.8844 22.4952L24.543 16.7095C25.05 16.2152 25.3742 15.5568 25.4605 14.846C25.4957 14.56 25.4671 14.2695 25.3768 13.9964C25.2865 13.7233 25.137 13.4746 24.9393 13.2691C24.5823 12.904 23.9968 12.4605 23.2703 12.4532H23.2506C22.6116 12.4532 21.9672 12.7817 21.3335 13.4297L17.9062 16.9467C16.1819 18.7189 14.3647 20.5842 13.8506 21.1099C13.54 21.4275 12.7903 22.2798 12.5208 23.3475C12.2352 24.4755 12.5618 25.5012 13.5222 26.4813C14.0809 27.0544 16.1087 28.7153 18.6988 26.067C19.6698 25.0741 26.7011 17.9542 26.7707 17.883C26.8367 17.8127 26.9157 17.7566 27.0032 17.718C27.0907 17.6795 27.1849 17.6592 27.2801 17.6584C27.3754 17.6576 27.4699 17.6763 27.558 17.7134C27.6461 17.7505 27.726 17.8053 27.7931 17.8745C27.8602 17.9437 27.913 18.0259 27.9485 18.1163C27.9841 18.2067 28.0015 18.3034 27.9999 18.4008C27.9983 18.4983 27.9776 18.5943 27.9391 18.6835C27.9006 18.7726 27.845 18.8529 27.7757 18.9197C27.7061 18.9909 20.6766 26.109 19.7091 27.1C18.6827 28.1586 17.2475 29 15.7303 29Z" fill="black"/>
</svg>
