<svg viewBox="0 0 64 64" xml:space="preserve" xmlns:xlink="http://www.w3.org/1999/xlink" xmlns="http://www.w3.org/2000/svg"><circle cx="32" cy="32" fill="#6f6cd9" r="32" class="fill-77b3d4"></circle><path d="M52 32c0-9.941-8.954-18-20-18s-20 8.059-20 18c0 9.569 8.303 17.372 18.775 17.944C31.463 53.597 32 56 32 56s5.045-3.044 9.639-8.23C47.814 44.706 52 38.795 52 32z" fill="#6f6cd9" opacity=".2" class="fill-231f20"></path><path d="M49 28.8C49 43.763 32 54 32 54s-9.389-42 0-42 17 7.522 17 16.8z" fill="#FFFFFF" class="fill-ffffff"></path><ellipse cx="32" cy="30" fill="#FFFFFF" rx="20" ry="18" class="fill-ffffff"></ellipse><circle cx="32" cy="30" fill="#6f6cd9" r="2" class="fill-4f5d73"></circle><circle cx="40" cy="30" fill="#6f6cd9" r="2" class="fill-4f5d73"></circle><circle cx="24" cy="30" fill="#6f6cd9" r="2" class="fill-4f5d73"></circle></svg>