<svg width="54" height="54" viewBox="0 0 54 54" fill="none" xmlns="http://www.w3.org/2000/svg" xmlns:xlink="http://www.w3.org/1999/xlink">
<path d="M26.9575 52.9068C41.2934 52.9068 52.915 41.287 52.915 26.9534C52.915 12.6197 41.2934 1 26.9575 1C12.6216 1 1 12.6197 1 26.9534C1 41.287 12.6216 52.9068 26.9575 52.9068Z" fill="white" stroke="#CDD9E3"/>
<path d="M37.8147 24.1946C37.8207 24.0614 37.8245 23.9275 37.8245 23.7928C37.8244 21.6338 37.0289 19.5503 35.5896 17.9393C34.1502 16.3283 32.1677 15.3024 30.0197 15.057C27.8716 14.8116 25.7083 15.364 23.9418 16.6088C22.1753 17.8536 20.9292 19.7039 20.4409 21.8071C19.2309 21.428 17.9533 21.3143 16.6953 21.4739C15.4373 21.6335 14.2287 22.0625 13.1521 22.7316C12.0755 23.4008 11.1564 24.2943 10.4576 25.351C9.75877 26.4076 9.29677 27.6026 9.10319 28.854C8.90962 30.1055 8.98903 31.384 9.33599 32.602C9.68296 33.8199 10.2893 34.9487 11.1135 35.9111C11.9377 36.8734 12.9604 37.6466 14.1115 38.1778C15.2627 38.7089 16.5151 38.9855 17.7832 38.9886H37.0913C39.0678 38.9886 40.9633 38.2046 42.3609 36.809C43.7584 35.4134 44.5436 33.5205 44.5436 31.5469C44.5432 29.7039 43.8526 27.9276 42.6075 26.5672C41.3624 25.2067 39.6528 24.3605 37.8147 24.1946Z" fill="#0F3F91"/>
<path d="M28.6784 25.3136L26.0599 33.3994C26.0325 33.4841 25.9886 33.5625 25.9308 33.6302C25.873 33.698 25.8024 33.7536 25.7231 33.7941C25.6437 33.8346 25.5571 33.859 25.4683 33.866C25.3795 33.8731 25.2902 33.8626 25.2054 33.8351C25.1206 33.8078 25.042 33.7641 24.9741 33.7064C24.9062 33.6487 24.8503 33.5782 24.8097 33.499C24.7691 33.4197 24.7446 33.3332 24.7375 33.2445C24.7304 33.1558 24.7409 33.0665 24.7684 32.9818L27.3891 24.896C27.4165 24.8113 27.4604 24.7329 27.5182 24.6652C27.576 24.5974 27.6466 24.5418 27.7259 24.5013C27.8053 24.4608 27.8919 24.4364 27.9807 24.4294C28.0695 24.4223 28.1588 24.4328 28.2436 24.4603C28.4145 24.5159 28.5563 24.637 28.6379 24.797C28.7194 24.9571 28.734 25.1428 28.6784 25.3136Z" fill="#2C7BD8"/>
<path d="M32.7978 28.3776L30.5093 26.0923C30.3816 25.9653 30.2086 25.8942 30.0284 25.8945C29.8481 25.8949 29.6754 25.9667 29.5482 26.0942C29.421 26.2217 29.3497 26.3945 29.3501 26.5745C29.3505 26.7545 29.4224 26.927 29.5501 27.054L31.458 28.9592L29.5501 30.8637C29.4228 30.9907 29.3512 31.163 29.3512 31.3427C29.3511 31.5224 29.4225 31.6948 29.5497 31.8219C29.6769 31.949 29.8495 32.0205 30.0294 32.0206C30.2094 32.0206 30.382 31.9493 30.5093 31.8223L32.7978 29.5371C32.9215 29.3696 32.9883 29.167 32.9883 28.9588C32.9883 28.7507 32.9215 28.548 32.7978 28.3806V28.3776Z" fill="#3FA6EB"/>
<path d="M22.1126 28.9171L24.0205 27.0118C24.0836 26.9489 24.1336 26.8742 24.1677 26.7919C24.2018 26.7097 24.2194 26.6215 24.2194 26.5325C24.2194 26.4435 24.2018 26.3554 24.1677 26.2731C24.1336 26.1909 24.0836 26.1162 24.0205 26.0532C23.9575 25.9903 23.8827 25.9403 23.8003 25.9063C23.718 25.8722 23.6297 25.8547 23.5405 25.8547C23.4514 25.8547 23.3631 25.8722 23.2808 25.9063C23.1984 25.9403 23.1236 25.9903 23.0606 26.0532L20.7721 28.3384C20.6483 28.5059 20.5815 28.7085 20.5815 28.9167C20.5815 29.1248 20.6483 29.3275 20.7721 29.4949L23.0606 31.7801C23.1236 31.8431 23.1984 31.893 23.2808 31.9271C23.3631 31.9612 23.4514 31.9787 23.5405 31.9787C23.6297 31.9787 23.718 31.9612 23.8003 31.9271C23.8827 31.893 23.9575 31.8431 24.0205 31.7801C24.0836 31.7172 24.1336 31.6425 24.1677 31.5602C24.2018 31.478 24.2194 31.3899 24.2194 31.3008C24.2194 31.2118 24.2018 31.1237 24.1677 31.0414C24.1336 30.9592 24.0836 30.8845 24.0205 30.8215L22.1126 28.9171Z" fill="#3FA6EB"/>
</svg>
