<svg width="31" height="31" viewBox="0 0 31 31" fill="none" xmlns="http://www.w3.org/2000/svg" xmlns:xlink="http://www.w3.org/1999/xlink">
<path d="M15.5 0C6.944 0 0 6.944 0 15.5C0 24.056 6.944 31 15.5 31C24.056 31 31 24.056 31 15.5C31 6.944 24.056 0 15.5 0ZM15.5 4.65C18.073 4.65 20.15 6.727 20.15 9.3C20.15 11.873 18.073 13.95 15.5 13.95C12.927 13.95 10.85 11.873 10.85 9.3C10.85 6.727 12.927 4.65 15.5 4.65ZM15.5 26.66C11.625 26.66 8.1995 24.676 6.2 21.669C6.2465 18.5845 12.4 16.895 15.5 16.895C18.5845 16.895 24.7535 18.5845 24.8 21.669C22.8005 24.676 19.375 26.66 15.5 26.66Z" fill="#656F77"/>
</svg>
