<?xml version="1.0" standalone="no"?>
<!DOCTYPE svg PUBLIC "-//W3C//DTD SVG 20010904//EN"
 "http://www.w3.org/TR/2001/REC-SVG-20010904/DTD/svg10.dtd">
<svg version="1.0" xmlns="http://www.w3.org/2000/svg"
 width="830.000000pt" height="740.000000pt" viewBox="0 0 830.000000 740.000000"
 preserveAspectRatio="xMidYMid meet">

<g transform="translate(0.000000,740.000000) scale(0.100000,-0.100000)"
fill="#000000" stroke="none">
<path d="M3660 6676 c-224 -29 -448 -82 -640 -153 -243 -90 -570 -276 -775
-443 -487 -395 -826 -947 -960 -1566 -77 -351 -78 -787 -4 -1133 91 -424 283
-833 546 -1161 418 -522 1036 -886 1683 -994 326 -54 702 -49 1014 15 529 107
1006 363 1390 744 380 376 640 850 755 1370 44 201 55 319 55 585 0 266 -11
384 -55 585 -154 697 -571 1308 -1162 1703 -337 226 -707 369 -1132 437 -138
23 -572 29 -715 11z m1436 -1148 l34 -38 0 -451 c0 -404 -2 -454 -17 -479 -40
-69 -138 -79 -197 -21 l-31 31 -3 375 -3 375 -370 0 -371 0 -33 33 c-61 61
-53 154 17 197 32 20 46 20 486 18 l454 -3 34 -37z m-1131 -234 c56 -26 86
-94 65 -149 -6 -16 -155 -176 -330 -356 l-320 -327 0 -316 0 -316 318 0 317 0
100 101 c55 55 112 107 127 115 93 49 202 -30 183 -133 -6 -31 -31 -63 -143
-177 -76 -76 -151 -145 -169 -152 -26 -11 -117 -14 -455 -14 -466 0 -466 0
-512 63 -20 28 -21 42 -24 450 -2 232 0 437 3 456 5 27 71 99 353 387 191 195
361 361 377 369 39 19 69 19 110 -1z m809 -858 c18 -7 42 -26 54 -41 22 -27
22 -31 22 -477 0 -371 -2 -454 -14 -476 -8 -15 -170 -182 -360 -372 l-346
-345 -56 0 c-51 0 -58 3 -90 37 -27 30 -34 46 -34 78 0 23 6 53 14 68 8 15
154 166 325 337 l311 310 0 317 0 318 -324 0 -324 0 -109 -114 c-60 -63 -122
-122 -138 -130 -89 -47 -195 27 -182 126 4 33 26 60 151 192 81 85 161 161
179 170 28 13 90 16 460 16 341 0 434 -3 461 -14z m-1724 -909 c13 -7 35 -28
47 -46 23 -34 23 -36 23 -396 l0 -362 338 5 c372 5 404 1 446 -48 54 -64 38
-153 -35 -192 -32 -17 -61 -18 -482 -16 l-449 3 -34 37 -34 38 0 450 c0 492 0
493 58 524 33 19 89 20 122 3z"/>
</g>
</svg>
