<svg width="16" height="18" viewBox="0 0 16 18" fill="none" xmlns="http://www.w3.org/2000/svg" xmlns:xlink="http://www.w3.org/1999/xlink">
<path d="M4.2666 0C3.67781 0 3.19995 0.504 3.19995 1.125V13.921C5.34818 13.9264 7.49614 13.9331 9.64411 13.8983C9.9017 13.8918 10.1945 14.0448 10.25 14.3314C10.1796 15.3188 10.6369 16.3347 11.4294 16.8775C11.9131 17.2808 12.5537 17.2364 13.1254 17.3863C13.3454 17.4735 13.4627 17.6906 13.484 17.9227C14.9227 17.5922 16 16.2416 16 14.6253V1.12528C16 0.504281 15.5221 0.00028125 14.9334 0.00028125H4.26686L4.2666 0ZM5.86657 3.375H7.99987C8.29426 3.375 8.53319 3.627 8.53319 3.9375V6.1875C8.53319 6.498 8.29426 6.75 7.99987 6.75H5.86657C5.57217 6.75 5.33324 6.498 5.33324 6.1875V3.9375C5.33324 3.627 5.57217 3.375 5.86657 3.375ZM10.1332 4.5H13.3331C13.6275 4.5 13.8664 4.752 13.8664 5.0625C13.8664 5.373 13.6275 5.625 13.3331 5.625H10.1332C9.83877 5.625 9.59984 5.373 9.59984 5.0625C9.59984 4.752 9.83877 4.5 10.1332 4.5ZM5.86657 7.875H7.99987C8.29426 7.875 8.53319 8.127 8.53319 8.4375V10.6875C8.53319 10.998 8.29426 11.25 7.99987 11.25H5.86657C5.57217 11.25 5.33324 10.998 5.33324 10.6875V8.4375C5.33324 8.127 5.57217 7.875 5.86657 7.875ZM10.1332 9H13.3331C13.6275 9 13.8664 9.252 13.8664 9.5625C13.8664 9.873 13.6275 10.125 13.3331 10.125H10.1332C9.83877 10.125 9.59984 9.873 9.59984 9.5625C9.59984 9.252 9.83877 9 10.1332 9ZM0 14.625C0 16.4891 1.43251 18 3.19995 18H12.7998C11.0323 18 9.59984 16.4891 9.59984 14.625H0Z" fill="#ACB8C2"/>
</svg>
